?xml vers56.11,55.72-834.17,83.58,8.52,62.34,17.05,124.68,25.57,187.02,14.99.27,29.98.55,44.97.82,6.59,40.46,13.18,80.91,19.77,121.37,202.21,2.01,404.42,4.03,606.63,6.04-.15,8.06-.29,16.13-.44,24.19,44.94,2.17,89.88,4.33,134.82,6.5.95-143.17,1.9-286.35,2.85-429.52Z"/></g><g id="Ebene_3"><path class="cls-1" d="m2181,702v-28h-29v28h29Z"/><g id="WCZHBE"><image id="WCZHBE-2" width="640" height="360" >ion="1.0" encoding="UTF-8"?><svg xmlns="http://www.w3.org/2000/svg" xmlns:xlink="http://www.w3.org/1999/xlink" viewBox="0 0 4869 1716"><defs><style>.cls-1{fill:#143f51;}.cls-1,.cls-2,.cls-3,.cls-4{stroke-miterlimit:10;}.cls-1,.cls-3,.cls-4{stroke:#00f4f4;stroke-width:2px;}.cls-2{stroke:#000;stroke-width:4px;}.cls-3{fill:none;}.cls-5,.cls-6{stroke-width:0px;}.cls-7{font-family:SourceCodeProRoman-Regular, 'Source Code Pro';font-size:9px;font-variation-settings:'wght' 400;}.cls-7,.cls-6{fill:#fff;}</style></defs>
<g id="Ebene_4">
<rect class="cls-2" x="3501" y="946" width="1366" height="768"/></g>
<g id="allgemein_umriss">
<path class="cls-5" d="m2319.44,305.42c-278.06,27.86-5</g> <path class="cls-1" d="m1603,611c-13-.33-26-.67-39-1l-6-36h40c1.67,12.33,3.33,24.67,5,37Z"/><path class="cls-1" d="m1650.23,616.07c-.16,27-.32,54-.48,81l-72.01-.32c-4.49-27.75-8.99-55.51-13.48-83.26,28.66.86,57.31,1.71,85.97,2.57Z"/><text class="cls-7" transform="translate(1592.68 662.03)"><tspan x="0" y="0">BB.003</tspan></text><path class="cls-1" d="m2096.73,702.24c.12-25,.25-50,.37-75.01-147.29-3.69-294.58-7.38-441.87-11.08.17,27.01.35,54.02.52,81.02l440.98,5.06Z"/><text class="cls-7" transform="translate(1861.5 664.41)"><tspan x="0" y="0">BB.002</tspan></text><path class="cls-1" d="m2181,671c-10.57.07-21.13.13-31.7.2-.1,10.27-.2,20.53-.3,30.8h-49v-75h81v44Z"/><path class="cls-1" d="m2157,631v18h-33v20h-20v-38h53Z"/><line class="cls-3" x1="2113" y1="640" x2="2157" y2="641"/><line class="cls-3" x1="2152" y1="649" x2="2152" y2="632"/><line class="cls-3" x1="2147" y1="649" x2="2147" y2="632"/><line class="cls-3" x1="2142" y1="649" x2="2142" y2="632"/><line class="cls-3" x1="2137" y1="649" x2="2137" y2="632"/><line class="cls-3" x1="2132" y1="649" x2="2132" y2="631"/><line class="cls-3" x1="2128" y1="649" x2="2128" y2="632"/><line class="cls-3" x1="2124" y1="649" x2="2124" y2="631"/><line class="cls-3" x1="2124" y1="649" x2="2105" y2="649"/><line class="cls-3" x1="2114" y1="640" x2="2114" y2="669"/><line class="cls-3" x1="2104" y1="653" x2="2124" y2="653"/><line class="cls-3" x1="2104" y1="657" x2="2124" y2="657"/><line class="cls-3" x1="2104" y1="661" x2="2124" y2="661"/><line class="cls-3" x1="2104" y1="665" x2="2124" y2="665"/><text class="cls-7" transform="translate(2134.94 662.1)"><tspan x="0" y="0">BB.T01</tspan></text><path class="cls-1" d="m2316,627c-12-.33-24-.67-36-1v-36h36v37Z"/><path class="cls-3" d="m2316,600h-25v16c8.33.67,16.67,1.33,25,2"/><line class="cls-3" x1="2315" y1="609" x2="2292" y2="608"/><path class="cls-1" d="m2316,630c-.27,34.41-.53,68.83-.8,103.24-43.73-2.08-87.47-4.16-131.2-6.24v-100l132,3Z"/><text class="cls-7" transform="translate(2234.39 684.17)"><tspan x="0" y="0">BB.0001</tspan></text><path class="cls-1" d="m2316,587c-22.37-.33-44.75-.66-67.12-1,.89-30.32,1.77-60.64,2.66-90.97,21.66.73,43.31,1.46,64.97,2.19-.17,29.93-.34,59.85-.51,89.78Z"/><text class="cls-7" transform="translate(2267.99 545.85)"><tspan x="0" y="0">BB.010</tspan></text><path class="cls-1" d="m2316,494v-48c-21.33,2.33-42.67,4.67-64,7-.14,13.01-.27,26.02-.41,39.04,21.47.65,42.94,1.31,64.41,1.96Z"/><text class="cls-7" transform="translate(2267.8 475.89)"><tspan x="0" y="0">BB.009</tspan></text><path class="cls-1" d="m2316,442c-41.33,4-82.67,8-124,12-6-43.67-12-87.33-18-131,47.67-5,95.33-10,143-15-.33,44.67-.67,89.33-1,134Z"/><text class="cls-7" transform="translate(2234.48 388.63)"><tspan x="0" y="0">BB.008</tspan></text><path class="cls-1" d="m2171,323l-261,27c6.25,43.38,12.51,86.76,18.76,130.14,86.5-8.42,173-16.84,259.5-25.26l-17.26-131.87Z"/><text class="cls-7" transform="translate(2029.72 408.3)"><tspan x="0" y="0">BB.007</tspan></text><path class="cls-1" d="m1655.18,509.14c-5.87-43.45-11.75-86.9-17.62-130.34,86.51-9.09,173.03-18.17,259.54-27.26,5.86,44.11,11.72,88.23,17.58,132.34-86.5,8.42-173,16.84-259.5,25.26Z"/><text class="cls-7" transform="translate(1758.96 436.31)"><tspan x="0" y="0">BB.006</tspan></text><path class="cls-1" d="m1583,495c-5.18-36.83-10.37-73.65-15.55-110.48-26.15,2.83-52.3,5.65-78.45,8.48,5,36.67,10,73.33,15,110,26.33-2.67,52.67-5.33,79-8Z"/><text class="cls-7" transform="translate(1519.58 449.81)"><tspan x="0" y="0">BB.006</tspan></text><path class="cls-1" d="m1554,573c-2.95-21.25-5.89-42.51-8.84-63.76-13.39.92-26.77,1.84-40.16,2.76,2.67,20.33,5.33,40.67,8,61h41Z"/><path class="cls-6" d="m1513.84,539.76h1.67c1.21,0,2.03.4,2.03,1.44,0,.59-.33,1.11-1.04,1.29v.04c.86.13,1.37.6,1.37,1.41,0,1.16-.9,1.73-2.22,1.73h-1.81v-5.91Zm1.55,2.48c1.01,0,1.41-.32,1.41-.98s-.47-.87-1.38-.87h-.84v1.85h.8Zm.15,2.79c1.01,0,1.59-.33,1.59-1.13,0-.73-.56-1.03-1.59-1.03h-.95v2.16h.95Z"/><path class="cls-6" d="m1519.24,539.76h1.67c1.21,0,2.03.4,2.03,1.44,0,.59-.33,1.11-1.04,1.29v.04c.86.13,1.37.6,1.37,1.41,0,1.16-.9,1.73-2.22,1.73h-1.81v-5.91Zm1.55,2.48c1.01,0,1.41-.32,1.41-.98s-.47-.87-1.38-.87h-.84v1.85h.8Zm.15,2.79c1.01,0,1.59-.33,1.59-1.13,0-.73-.56-1.03-1.59-1.03h-.95v2.16h.95Z"/><path class="cls-6" d="m1525.72,545.01c0-.45.32-.77.73-.77s.73.32.73.77-.32.77-.73.77-.73-.31-.73-.77Z"/><path class="cls-6" d="m1529.79,542.78c0-1.93.78-2.96,2.06-2.96s2.06,1.04,2.06,2.96-.78,3-2.06,3-2.06-1.09-2.06-3Zm3.43,0c0-1.65-.57-2.36-1.37-2.36s-1.37.71-1.37,2.36.57,2.39,1.37,2.39,1.37-.75,1.37-2.39Zm-1.93-.06c0-.37.26-.59.56-.59s.56.22.56.59-.26.6-.56.6-.56-.23-.56-.6Z"/><path class="cls-6" d="m1535.19,542.78c0-1.93.78-2.96,2.06-2.96s2.06,1.04,2.06,2.96-.78,3-2.06,3-2.06-1.09-2.06-3Zm3.43,0c0-1.65-.57-2.36-1.37-2.36s-1.37.71-1.37,2.36.57,2.39,1.37,2.39,1.37-.75,1.37-2.39Zm-1.93-.06c0-.37.26-.59.56-.59s.56.22.56.59-.26.6-.56.6-.56-.23-.56-.6Z"/><path class="cls-6" d="m1540.45,544.99l.37-.5c.39.34.86.66,1.62.66s1.45-.5,1.45-1.31-.56-1.25-1.4-1.25c-.48,0-.77.12-1.17.34l-.4-.25.19-2.76h3.25v.65h-2.59l-.15,1.69c.33-.14.63-.23,1.06-.23,1.1,0,1.97.56,1.97,1.8s-1.03,1.95-2.12,1.95c-1.03,0-1.63-.39-2.07-.78Z"/><line class="cls-3" x1="1560" y1="583" x2="1582" y2="583"/><line class="cls-3" x1="1563" y1="602" x2="1583" y2="602"/><line class="cls-3" x1="1581" y1="583" x2="1582" y2="602"/><line class="cls-3" x1="1581" y1="592" x2="1561" y2="592"/><path class="cls-1" d="m2054,582v-24l33-12v36.16l-33-.16Z"/><line class="cls-3" x1="2054" y1="577" x2="2086" y2="577"/><line class="cls-3" x1="2054" y1="572" x2="2087" y2="572"/><line class="cls-3" x1="2054" y1="567" x2="2087" y2="567"/><line class="cls-3" x1="2054" y1="562" x2="2086" y2="562"/><line class="cls-3" x1="2057" y1="557" x2="2087" y2="557"/><line class="cls-3" x1="2071" y1="552" x2="2086" y2="552"/><line class="cls-3" x1="2070" y1="582" x2="2070" y2="552"/><path class="cls-1" d="m1763,545c-13,.67-26,1.33-39,2,.67,7.11,1.33,14.23,2,21.34,13-.11,26-.23,39-.34-.67-7.67-1.33-15.33-2-23Z"/><line class="cls-3" x1="1727" y1="568" x2="1762" y2="546"/><line class="cls-3" x1="1724" y1="547" x2="1765" y2="567"/><path class="cls-1" d="m2177.93,582.67c.12-6.67.24-13.33.37-20-11.33-.21-22.66-.41-33.99-.62-.12,6.67-.24,13.33-.37,20,11.33.21,22.66.41,33.99.62Z"/><line class="cls-3" x1="2144" y1="562" x2="2178" y2="583"/><line class="cls-3" x1="2144" y1="582" x2="2178" y2="563"/><path class="cls-1" d="m1617.86,572.54c-1.29-18.18-2.57-36.36-3.86-54.54,18-1.67,36-3.33,54-5,1.62,19.04,3.25,38.07,4.87,57.11-18.34.81-36.67,1.62-55.01,2.43Z"/><path class="cls-6" d="m1634.06,539.31h.85l.43,3.71c.05.5.09.78.12,1.37h.03c.11-.59.17-.87.29-1.36l.58-2.2h.72l.56,2.2c.13.49.18.77.29,1.36h.04c.04-.59.05-.87.11-1.36l.41-3.72h.81l-.86,5.92h-.94l-.58-2.38c-.09-.36-.16-.7-.22-1.06h-.03c-.06.36-.12.7-.21,1.06l-.58,2.38h-.92l-.9-5.92Z"/><path class="cls-6" d="m1639.96,542.27c0-1.9,1.11-3.06,2.65-3.06.71,0,1.27.34,1.62.72l-.43.48c-.31-.32-.69-.53-1.19-.53-1.13,0-1.86.91-1.86,2.38s.74,2.41,1.86,2.41c.54,0,.95-.23,1.32-.65l.43.46c-.46.54-1.04.86-1.83.86-1.46,0-2.58-1.13-2.58-3.06Z"/><path class="cls-6" d="m1650.89,539.32h.77v2.47h2.45v-2.47h.77v5.91h-.77v-2.77h-2.45v2.77h-.77v-5.91Z"/><path class="cls-1" d="m1677,570c-1.53-19.17-3.06-38.34-4.59-57.52,14.53-1.49,29.06-2.99,43.59-4.48,2,20.33,4,40.67,6,61-15,.33-30,.67-45,1Z"/><path class="cls-6" d="m1685.48,537.45h.85l.43,3.71c.05.5.09.78.12,1.37h.03c.11-.59.17-.87.29-1.36l.58-2.2h.72l.56,2.2c.13.49.18.77.29,1.36h.04c.04-.59.05-.87.11-1.36l.41-3.72h.81l-.86,5.92h-.94l-.58-2.38c-.09-.36-.16-.7-.22-1.06h-.03c-.06.36-.12.7-.21,1.06l-.58,2.38h-.92l-.9-5.92Z"/><path class="cls-6" d="m1691.37,540.41c0-1.9,1.11-3.06,2.65-3.06.71,0,1.27.34,1.62.72l-.43.48c-.31-.32-.69-.53-1.19-.53-1.13,0-1.86.91-1.86,2.38s.74,2.41,1.86,2.41c.54,0,.95-.23,1.32-.65l.43.46c-.46.54-1.04.86-1.83.86-1.46,0-2.58-1.13-2.58-3.06Z"/><path class="cls-6" d="m1702.37,537.46h1.46c1.77,0,2.74,1.05,2.74,2.93s-.96,2.98-2.7,2.98h-1.49v-5.91Zm1.4,5.28c1.34,0,2.01-.86,2.01-2.36s-.67-2.3-2.01-2.3h-.65v4.66h.65Z"/><path class="cls-1" d="m1652.09,509.42c-1.36-8.81-2.72-17.61-4.09-26.42-12.84,1.73-25.69,3.46-38.53,5.19,1.18,8.39,2.36,16.78,3.54,25.17,13.03-1.31,26.05-2.62,39.08-3.94Z"/><path class="cls-6" d="m1617.54,495.64h.85l.43,3.71c.05.5.09.78.12,1.37h.03c.11-.59.17-.87.29-1.36l.58-2.2h.72l.56,2.2c.13.49.18.77.29,1.36h.04c.04-.59.05-.87.11-1.36l.41-3.72h.81l-.86,5.92h-.94l-.58-2.38c-.09-.36-.16-.7-.22-1.06h-.03c-.06.36-.12.7-.21,1.06l-.58,2.38h-.92l-.9-5.92Z"/><path class="cls-6" d="m1623.43,498.6c0-1.9,1.11-3.06,2.65-3.06.71,0,1.27.34,1.62.72l-.43.48c-.31-.32-.69-.53-1.19-.53-1.13,0-1.86.91-1.86,2.38s.74,2.41,1.86,2.41c.54,0,.95-.23,1.32-.65l.43.46c-.46.54-1.04.86-1.83.86-1.46,0-2.58-1.13-2.58-3.06Z"/><path class="cls-6" d="m1634.54,495.65h1.67c1.21,0,2.03.4,2.03,1.44,0,.59-.33,1.11-1.04,1.29v.04c.86.13,1.37.6,1.37,1.41,0,1.16-.9,1.73-2.22,1.73h-1.81v-5.91Zm1.55,2.48c1.01,0,1.41-.32,1.41-.98s-.47-.87-1.38-.87h-.84v1.85h.8Zm.15,2.79c1.01,0,1.59-.33,1.59-1.13,0-.73-.56-1.03-1.59-1.03h-.95v2.16h.95Z"/><path class="cls-6" d="m1639.76,495.65h.77v2.47h2.45v-2.47h.77v5.91h-.77v-2.77h-2.45v2.77h-.77v-5.91Z"/><path class="cls-1" d="m1720,508c1.33,11.67,2.67,23.33,4,35,13-.67,26-1.33,39-2-1-12.33-2-24.67-3-37-13.33,1.33-26.67,2.67-40,4Z"/><text class="cls-7" transform="translate(1725.97 527.5)"><tspan x="0" y="0">BB.017</tspan></text><path class="cls-1" d="m2206.04,522.21c-20.68-.07-41.36-.14-62.04-.21v-44c11.93.91,23.86,1.82,35.79,2.72-.05,2.67-.1,5.33-.15,8,8.99.5,17.98,1,26.98,1.49-.19,10.66-.39,21.33-.58,31.99Z"/><path class="cls-6" d="m2163.63,501.21h.85l.43,3.71c.05.5.09.78.12,1.37h.03c.11-.59.17-.87.29-1.36l.58-2.2h.72l.56,2.2c.13.49.18.77.29,1.36h.04c.04-.59.05-.87.11-1.36l.41-3.72h.81l-.86,5.92h-.94l-.58-2.38c-.09-.36-.16-.7-.22-1.06h-.03c-.06.36-.12.7-.21,1.06l-.58,2.38h-.92l-.9-5.92Z"/><path class="cls-6" d="m2169.52,504.17c0-1.9,1.11-3.06,2.65-3.06.71,0,1.27.34,1.62.72l-.43.48c-.31-.32-.69-.53-1.19-.53-1.12,0-1.86.91-1.86,2.38s.74,2.41,1.86,2.41c.54,0,.95-.23,1.32-.65l.43.46c-.46.54-1.04.86-1.83.86-1.46,0-2.58-1.13-2.58-3.06Z"/><path class="cls-6" d="m2180.45,501.22h.77v2.47h2.45v-2.47h.77v5.91h-.77v-2.77h-2.45v2.77h-.77v-5.91Z"/><path class="cls-1" d="m2144.16,558.09l-.16-32.09c20.49.07,40.99.13,61.48.2.39,11.01.79,22.02,1.18,33.03-20.84-.38-41.67-.76-62.51-1.14Z"/><path class="cls-6" d="m2163.1,539.56h.85l.43,3.71c.05.5.09.78.12,1.37h.03c.11-.59.17-.87.29-1.36l.58-2.2h.72l.56,2.2c.13.49.18.77.29,1.36h.04c.04-.59.05-.87.11-1.36l.41-3.72h.81l-.86,5.92h-.94l-.58-2.38c-.09-.36-.16-.7-.22-1.06h-.03c-.06.36-.12.7-.21,1.06l-.58,2.38h-.92l-.9-5.92Z"/><path class="cls-6" d="m2169,542.52c0-1.9,1.11-3.06,2.65-3.06.71,0,1.27.34,1.62.72l-.43.48c-.31-.32-.69-.53-1.19-.53-1.12,0-1.86.91-1.86,2.38s.74,2.41,1.86,2.41c.54,0,.95-.23,1.32-.65l.43.46c-.46.54-1.04.86-1.83.86-1.46,0-2.57-1.13-2.57-3.06Z"/><path class="cls-6" d="m2179.99,539.57h1.46c1.77,0,2.74,1.05,2.74,2.93s-.96,2.98-2.7,2.98h-1.49v-5.91Zm1.4,5.28c1.34,0,2.01-.86,2.01-2.36s-.67-2.3-2.01-2.3h-.65v4.66h.65Z"/><path class="cls-1" d="m1632,379c-20.33,1.63-40.67,3.25-61,4.88,5.35,35.93,10.69,71.85,16.04,107.78,6.33-.65,12.67-1.3,19-1.95-.33-3.27-.67-6.53-1-9.8,13.67-1.63,27.33-3.26,41-4.88-4.68-32.01-9.36-64.01-14.04-96.02Z"/><rect class="cls-4" x="1599" y="409.8" width="21" height="54" transform="translate(3263.67 648.88) rotate(172.12)"/><line class="cls-3" x1="1605" y1="473" x2="1635" y2="469"/><line class="cls-3" x1="1603" y1="465" x2="1605" y2="481"/><line class="cls-3" x1="1608" y1="464" x2="1610" y2="480"/><line class="cls-3" x1="1613.86" y1="464.14" x2="1616" y2="479"/><line class="cls-3" x1="1619" y1="463" x2="1620.86" y2="478.14"/><line class="cls-3" x1="1623.86" y1="462.14" x2="1626" y2="478"/><line class="cls-3" x1="1623" y1="462" x2="1644" y2="459"/><line class="cls-3" x1="1623" y1="457" x2="1643" y2="454"/><line class="cls-3" x1="1622" y1="452" x2="1642" y2="449"/><line class="cls-3" x1="1622" y1="447" x2="1641" y2="444"/><line class="cls-3" x1="1621" y1="442" x2="1641" y2="439"/><line class="cls-3" x1="1620" y1="437" x2="1640" y2="434"/><line class="cls-3" x1="1635" y1="470" x2="1626" y2="410"/><line class="cls-3" x1="1619" y1="432" x2="1639" y2="429"/><line class="cls-3" x1="1619" y1="427" x2="1638" y2="424"/><line class="cls-3" x1="1618" y1="422" x2="1638" y2="419"/><line class="cls-3" x1="1617" y1="417" x2="1637" y2="414"/><line class="cls-3" x1="1617" y1="412" x2="1636" y2="409"/><text class="cls-7" transform="translate(1584.5 397.45)"><tspan x="0" y="0">BB.T02</tspan></text></g></svg>